<svg width="16" height="16" viewBox="0 0 16 16" fill="none" xmlns="http://www.w3.org/2000/svg">
<path d="M8 16C6.90625 16 5.85417 15.7812 4.84375 15.3437C5.13542 15.125 5.375 14.8594 5.5625 14.5469C6.35417 14.849 7.16667 15 8 15C8.94792 15 9.85417 14.8151 10.7187 14.4453C11.5833 14.0755 12.3281 13.5781 12.9531 12.9531C13.5781 12.3281 14.0755 11.5833 14.4453 10.7187C14.8151 9.85417 15 8.94792 15 8C15 7.05208 14.8151 6.14583 14.4453 5.28125C14.0755 4.41667 13.5781 3.67187 12.9531 3.04687C12.3281 2.42187 11.5833 1.92448 10.7187 1.55469C9.85417 1.1849 8.94792 1 8 1C7.05208 1 6.14583 1.1849 5.28125 1.55469C4.41667 1.92448 3.67187 2.42187 3.04687 3.04687C2.42187 3.67187 1.92448 4.41667 1.55469 5.28125C1.1849 6.14583 1 7.05208 1 8C1 8.83333 1.15104 9.64583 1.45312 10.4375C1.14062 10.625 0.875 10.8646 0.65625 11.1562C0.21875 10.1458 0 9.09375 0 8C0 6.91667 0.210937 5.88021 0.632812 4.89062C1.05469 3.90104 1.6224 3.04948 2.33594 2.33594C3.04948 1.6224 3.90104 1.05469 4.89062 0.632812C5.88021 0.210937 6.91667 0 8 0C9.08333 0 10.1198 0.210937 11.1094 0.632812C12.099 1.05469 12.9505 1.6224 13.6641 2.33594C14.3776 3.04948 14.9453 3.90104 15.3672 4.89062C15.7891 5.88021 16 6.91667 16 8C16 9.08333 15.7891 10.1198 15.3672 11.1094C14.9453 12.099 14.3776 12.9505 13.6641 13.6641C12.9505 14.3776 12.099 14.9453 11.1094 15.3672C10.1198 15.7891 9.08333 16 8 16ZM3 11C3.55208 11 4.02344 11.1953 4.41406 11.5859C4.80469 11.9766 5 12.4479 5 13C5 13.5521 4.80469 14.0234 4.41406 14.4141C4.02344 14.8047 3.55208 15 3 15C2.44792 15 1.97656 14.8047 1.58594 14.4141C1.19531 14.0234 1 13.5521 1 13C1 12.4479 1.19531 11.9766 1.58594 11.5859C1.97656 11.1953 2.44792 11 3 11Z" fill="white"/>
</svg>
